<svg xmlns="http://www.w3.org/2000/svg" xmlns:xlink="http://www.w3.org/1999/xlink" width="2560" zoomAndPan="magnify" viewBox="0 0 1920 1079.999946" height="1440" preserveAspectRatio="xMidYMid meet" version="1.0"><defs><g/></defs><path fill="#ffffff" d="M 725.660156 548.863281 L 689.980469 548.863281 C 681.792969 548.863281 681.792969 561.5625 689.980469 561.5625 L 725.660156 561.5625 C 733.851562 561.5625 733.851562 548.863281 725.660156 548.863281 Z M 725.660156 548.863281 " fill-opacity="1" fill-rule="nonzero"/><path fill="#ffffff" d="M 761.199219 432.441406 L 729.308594 414.722656 C 722.144531 410.742188 715.742188 421.710938 722.898438 425.6875 L 754.789062 443.40625 C 761.953125 447.390625 768.359375 436.417969 761.199219 432.441406 Z M 761.199219 432.441406 " fill-opacity="1" fill-rule="nonzero"/><path fill="#ffffff" d="M 847.828125 348.875 L 830.464844 318.125 C 826.4375 310.996094 815.464844 317.394531 819.5 324.535156 L 836.859375 355.285156 C 840.886719 362.414062 851.859375 356.015625 847.828125 348.875 Z M 847.828125 348.875 " fill-opacity="1" fill-rule="nonzero"/><path fill="#ffffff" d="M 966.335938 320.972656 L 966.335938 285.207031 C 966.335938 277.019531 953.636719 277.019531 953.636719 285.207031 L 953.636719 320.972656 C 953.636719 329.164062 966.335938 329.164062 966.335938 320.972656 Z M 966.335938 320.972656 " fill-opacity="1" fill-rule="nonzero"/><path fill="#ffffff" d="M 1083.328125 356.296875 L 1100.464844 324.535156 C 1104.355469 317.328125 1093.386719 310.917969 1089.5 318.125 L 1072.363281 349.886719 C 1068.472656 357.089844 1079.4375 363.503906 1083.328125 356.296875 Z M 1083.328125 356.296875 " fill-opacity="1" fill-rule="nonzero"/><path fill="#ffffff" d="M 1165.625 444.417969 L 1197.054688 425.6875 C 1204.082031 421.5 1197.699219 410.519531 1190.644531 414.71875 L 1159.214844 433.453125 C 1152.1875 437.636719 1158.570312 448.621094 1165.625 444.417969 Z M 1165.625 444.417969 " fill-opacity="1" fill-rule="nonzero"/><path fill="#ffffff" d="M 1193.664062 561.5625 L 1229.984375 561.5625 C 1238.171875 561.5625 1238.171875 548.863281 1229.984375 548.863281 L 1193.664062 548.863281 C 1185.472656 548.863281 1185.472656 561.5625 1193.664062 561.5625 Z M 1193.664062 561.5625 " fill-opacity="1" fill-rule="nonzero"/><path fill="#ffffff" d="M 961.445312 539.007812 L 960.554688 539.007812 C 951.902344 539.007812 944.679688 546.226562 944.679688 554.882812 C 944.679688 563.535156 951.902344 570.757812 960.554688 570.757812 L 961.445312 570.757812 C 970.101562 570.757812 977.320312 563.535156 977.320312 554.882812 C 977.320312 546.226562 970.101562 539.007812 961.445312 539.007812 Z M 961.445312 539.007812 " fill-opacity="1" fill-rule="nonzero"/><path fill="#ffffff" d="M 963.617188 555.820312 L 963.617188 413.175781 C 963.617188 409.082031 957.269531 409.082031 957.269531 413.175781 L 957.269531 555.820312 C 957.269531 559.914062 963.617188 559.914062 963.617188 555.820312 Z M 963.617188 555.820312 " fill-opacity="1" fill-rule="nonzero"/><path fill="#ffffff" d="M 962.167969 553.277344 L 868.113281 390.527344 L 860.589844 377.507812 C 858.539062 373.964844 853.050781 377.160156 855.105469 380.710938 L 949.164062 543.460938 L 956.6875 556.480469 C 958.734375 560.023438 964.222656 556.828125 962.167969 553.277344 Z M 962.167969 553.277344 " fill-opacity="1" fill-rule="nonzero"/><g fill="#ffffff" fill-opacity="1"><g transform="translate(519.522835, 675.196399)"><g><path d="M 64.398438 -11.878906 L 42.746094 -88.824219 L 29.644531 -88.824219 C 30.421875 -86.378906 30.421875 -85.160156 29.867188 -82.828125 L 9.546875 -11.214844 C 8.328125 -7.105469 7.992188 -4.886719 5.550781 0 L 8.769531 0 C 9.214844 -4.773438 10.105469 -7.105469 11.324219 -11.324219 L 17.320312 -32.308594 L 47.078125 -32.308594 L 52.851562 -11.878906 C 54.183594 -7.105469 54.960938 -4.996094 55.179688 0 L 69.058594 0 C 66.839844 -4.332031 65.839844 -6.773438 64.398438 -11.878906 Z M 17.765625 -34.085938 L 32.199219 -85.046875 L 46.632812 -34.085938 Z M 17.765625 -34.085938 "/></g></g></g><g fill="#ffffff" fill-opacity="1"><g transform="translate(594.125988, 675.196399)"><g><path d="M 59.179688 -21.09375 C 53.847656 -34.417969 45.742188 -39.527344 36.085938 -41.304688 C 52.40625 -42.523438 65.285156 -48.1875 65.285156 -64.953125 C 65.285156 -84.269531 48.074219 -88.824219 28.3125 -88.824219 L 7.773438 -88.824219 C 8.4375 -79.496094 8.660156 -75.054688 8.660156 -66.949219 L 8.660156 -21.871094 C 8.660156 -13.769531 8.4375 -9.328125 7.773438 0 L 20.429688 0 C 19.761719 -9.328125 19.542969 -13.769531 19.542969 -21.871094 L 19.542969 -41.082031 L 23.539062 -41.082031 C 34.972656 -41.082031 41.859375 -37.75 48.074219 -20.316406 C 53.515625 -4.773438 61.84375 0 80.164062 0 L 80.164062 -1.664062 C 69.835938 -1.664062 64.839844 -6.21875 59.179688 -21.09375 Z M 19.542969 -42.855469 L 19.542969 -87.046875 L 28.203125 -87.046875 C 41.191406 -87.046875 53.960938 -82.605469 53.960938 -64.953125 C 53.960938 -47.296875 41.191406 -42.855469 28.203125 -42.855469 Z M 19.542969 -42.855469 "/></g></g></g><g fill="#ffffff" fill-opacity="1"><g transform="translate(678.387579, 675.196399)"><g><path d="M 7.773438 -88.824219 C 8.4375 -79.496094 8.660156 -75.054688 8.660156 -66.949219 L 8.660156 -21.871094 C 8.660156 -13.769531 8.4375 -9.328125 7.773438 0 L 20.429688 0 C 19.761719 -9.328125 19.542969 -13.769531 19.542969 -21.871094 L 19.542969 -66.949219 C 19.542969 -75.054688 19.761719 -79.496094 20.429688 -88.824219 Z M 7.773438 -88.824219 "/></g></g></g><g fill="#ffffff" fill-opacity="1"><g transform="translate(706.58578, 675.196399)"><g><path d="M 4.441406 -26.535156 C 11.992188 -5.105469 24.871094 2.21875 40.527344 2.21875 C 54.070312 2.21875 65.394531 -4.996094 65.394531 -19.875 C 65.394531 -33.53125 55.515625 -40.414062 36.640625 -54.292969 C 22.871094 -64.398438 16.433594 -68.394531 16.433594 -77.054688 C 16.433594 -84.382812 22.09375 -89.265625 31.644531 -89.265625 C 45.855469 -89.265625 51.628906 -78.054688 53.738281 -67.171875 L 62.621094 -70.503906 C 54.960938 -84.269531 45.300781 -91.042969 32.199219 -91.042969 C 19.320312 -91.042969 9.992188 -84.714844 9.992188 -73.167969 C 9.992188 -62.175781 16.65625 -57.070312 32.53125 -45.300781 C 49.1875 -32.640625 59.066406 -26.089844 59.066406 -16.320312 C 59.066406 -5.105469 51.40625 0.445312 41.191406 0.445312 C 26.535156 0.445312 15.542969 -12.433594 13.324219 -30.867188 Z M 4.441406 -26.535156 "/></g></g></g><g fill="#ffffff" fill-opacity="1"><g transform="translate(776.415235, 675.196399)"><g><path d="M 71.503906 -88.824219 L 2.21875 -88.824219 L 7.105469 -82.605469 C 16.65625 -86.378906 25.203125 -87.046875 30.089844 -87.046875 L 31.421875 -87.046875 L 31.421875 -21.871094 C 31.421875 -13.769531 31.199219 -9.328125 30.53125 0 L 43.191406 0 C 42.523438 -9.328125 42.300781 -13.769531 42.300781 -21.871094 L 42.300781 -87.046875 L 43.632812 -87.046875 C 48.519531 -87.046875 57.070312 -86.378906 66.617188 -82.605469 Z M 71.503906 -88.824219 "/></g></g></g><g fill="#ffffff" fill-opacity="1"><g transform="translate(850.130275, 675.196399)"><g><path d="M 56.292969 2.21875 C 84.714844 2.21875 106.03125 -17.097656 106.03125 -44.410156 C 106.03125 -71.613281 84.714844 -91.042969 56.292969 -91.042969 C 27.867188 -91.042969 6.660156 -71.613281 6.660156 -44.410156 C 6.660156 -17.097656 27.867188 2.21875 56.292969 2.21875 Z M 56.292969 0.445312 C 32.753906 0.445312 18.652344 -20.984375 18.652344 -44.410156 C 18.652344 -67.726562 32.753906 -89.265625 56.292969 -89.265625 C 79.828125 -89.265625 94.042969 -67.726562 94.042969 -44.410156 C 94.042969 -20.984375 79.828125 0.445312 56.292969 0.445312 Z M 56.292969 0.445312 "/></g></g></g><g fill="#ffffff" fill-opacity="1"><g transform="translate(962.812115, 675.196399)"><g><path d="M 4.441406 -26.535156 C 11.992188 -5.105469 24.871094 2.21875 40.527344 2.21875 C 54.070312 2.21875 65.394531 -4.996094 65.394531 -19.875 C 65.394531 -33.53125 55.515625 -40.414062 36.640625 -54.292969 C 22.871094 -64.398438 16.433594 -68.394531 16.433594 -77.054688 C 16.433594 -84.382812 22.09375 -89.265625 31.644531 -89.265625 C 45.855469 -89.265625 51.628906 -78.054688 53.738281 -67.171875 L 62.621094 -70.503906 C 54.960938 -84.269531 45.300781 -91.042969 32.199219 -91.042969 C 19.320312 -91.042969 9.992188 -84.714844 9.992188 -73.167969 C 9.992188 -62.175781 16.65625 -57.070312 32.53125 -45.300781 C 49.1875 -32.640625 59.066406 -26.089844 59.066406 -16.320312 C 59.066406 -5.105469 51.40625 0.445312 41.191406 0.445312 C 26.535156 0.445312 15.542969 -12.433594 13.324219 -30.867188 Z M 4.441406 -26.535156 "/></g></g></g><g fill="#ffffff" fill-opacity="1"><g transform="translate(1032.641569, 675.196399)"><g><path d="M 7.773438 0 L 20.429688 0 C 19.761719 -9.328125 19.542969 -13.769531 19.542969 -21.871094 L 19.542969 -41.082031 L 28.3125 -41.082031 C 48.074219 -41.082031 65.285156 -45.632812 65.285156 -64.953125 C 65.285156 -84.269531 48.074219 -88.824219 28.3125 -88.824219 L 7.773438 -88.824219 C 8.4375 -79.496094 8.660156 -75.054688 8.660156 -66.949219 L 8.660156 -21.871094 C 8.660156 -13.769531 8.4375 -9.328125 7.773438 0 Z M 19.542969 -42.855469 L 19.542969 -87.046875 L 28.203125 -87.046875 C 41.191406 -87.046875 53.960938 -82.605469 53.960938 -64.953125 C 53.960938 -47.296875 41.191406 -42.855469 28.203125 -42.855469 Z M 19.542969 -42.855469 "/></g></g></g><g fill="#ffffff" fill-opacity="1"><g transform="translate(1103.470144, 675.196399)"><g><path d="M 71.058594 -66.949219 C 71.058594 -75.054688 71.167969 -79.496094 71.945312 -88.824219 L 59.289062 -88.824219 C 59.957031 -79.496094 60.175781 -75.054688 60.175781 -66.949219 L 60.175781 -45.300781 L 19.542969 -45.300781 L 19.542969 -66.949219 C 19.542969 -75.054688 19.761719 -79.496094 20.429688 -88.824219 L 7.773438 -88.824219 C 8.4375 -79.496094 8.660156 -75.054688 8.660156 -66.949219 L 8.660156 -21.871094 C 8.660156 -13.769531 8.4375 -9.328125 7.773438 0 L 20.429688 0 C 19.761719 -9.328125 19.542969 -13.769531 19.542969 -21.871094 L 19.542969 -43.523438 L 60.175781 -43.523438 L 60.175781 -21.871094 C 60.175781 -13.769531 59.957031 -9.328125 59.289062 0 L 71.945312 0 C 71.167969 -9.328125 71.058594 -13.769531 71.058594 -21.871094 Z M 71.058594 -66.949219 "/></g></g></g><g fill="#ffffff" fill-opacity="1"><g transform="translate(1183.180047, 675.196399)"><g><path d="M 7.773438 -88.824219 C 8.660156 -79.496094 8.769531 -75.054688 8.769531 -66.949219 L 8.769531 -21.871094 C 8.769531 -13.769531 8.660156 -9.328125 7.773438 0 L 59.957031 0 L 63.175781 -5.996094 C 50.738281 -2.332031 43.191406 -1.777344 32.199219 -1.777344 L 19.761719 -1.777344 L 19.761719 -46.1875 L 26.867188 -46.1875 C 32.753906 -46.1875 38.75 -46.1875 49.074219 -45.078125 L 49.074219 -49.074219 C 38.75 -47.964844 32.753906 -47.964844 26.867188 -47.964844 L 19.761719 -47.964844 L 19.761719 -87.046875 L 29.867188 -87.046875 C 34.863281 -87.046875 45.742188 -86.378906 55.179688 -82.605469 L 60.175781 -88.824219 Z M 7.773438 -88.824219 "/></g></g></g><g fill="#ffffff" fill-opacity="1"><g transform="translate(1249.678983, 675.196399)"><g><path d="M 59.179688 -21.09375 C 53.847656 -34.417969 45.742188 -39.527344 36.085938 -41.304688 C 52.40625 -42.523438 65.285156 -48.1875 65.285156 -64.953125 C 65.285156 -84.269531 48.074219 -88.824219 28.3125 -88.824219 L 7.773438 -88.824219 C 8.4375 -79.496094 8.660156 -75.054688 8.660156 -66.949219 L 8.660156 -21.871094 C 8.660156 -13.769531 8.4375 -9.328125 7.773438 0 L 20.429688 0 C 19.761719 -9.328125 19.542969 -13.769531 19.542969 -21.871094 L 19.542969 -41.082031 L 23.539062 -41.082031 C 34.972656 -41.082031 41.859375 -37.75 48.074219 -20.316406 C 53.515625 -4.773438 61.84375 0 80.164062 0 L 80.164062 -1.664062 C 69.835938 -1.664062 64.839844 -6.21875 59.179688 -21.09375 Z M 19.542969 -42.855469 L 19.542969 -87.046875 L 28.203125 -87.046875 C 41.191406 -87.046875 53.960938 -82.605469 53.960938 -64.953125 C 53.960938 -47.296875 41.191406 -42.855469 28.203125 -42.855469 Z M 19.542969 -42.855469 "/></g></g></g><g fill="#ffffff" fill-opacity="1"><g transform="translate(1333.940573, 675.196399)"><g><path d="M 7.773438 -88.824219 C 8.660156 -79.496094 8.769531 -75.054688 8.769531 -66.949219 L 8.769531 -21.871094 C 8.769531 -13.769531 8.660156 -9.328125 7.773438 0 L 59.957031 0 L 63.175781 -5.996094 C 50.738281 -2.332031 43.191406 -1.777344 32.199219 -1.777344 L 19.761719 -1.777344 L 19.761719 -46.1875 L 26.867188 -46.1875 C 32.753906 -46.1875 38.75 -46.1875 49.074219 -45.078125 L 49.074219 -49.074219 C 38.75 -47.964844 32.753906 -47.964844 26.867188 -47.964844 L 19.761719 -47.964844 L 19.761719 -87.046875 L 29.867188 -87.046875 C 34.863281 -87.046875 45.742188 -86.378906 55.179688 -82.605469 L 60.175781 -88.824219 Z M 7.773438 -88.824219 "/></g></g></g><g fill="#ffffff" fill-opacity="1"><g transform="translate(643.202539, 740.674376)"><g><path d="M 35.085938 -26.921875 C 35.507812 -28.34375 35.625 -29.117188 36.472656 -30.808594 L 35.355469 -30.808594 C 35.199219 -29.152344 34.894531 -28.34375 34.46875 -26.882812 L 27.230469 -1.308594 L 21.296875 -22.375 L 22.570312 -26.921875 C 22.992188 -28.34375 23.109375 -29.117188 23.953125 -30.808594 L 22.800781 -30.808594 C 22.683594 -29.152344 22.335938 -28.34375 21.953125 -26.882812 L 20.988281 -23.453125 L 20.066406 -26.6875 C 19.601562 -28.34375 19.332031 -29.078125 19.257812 -30.808594 L 14.441406 -30.808594 C 15.210938 -29.308594 15.558594 -28.460938 16.058594 -26.6875 L 18.988281 -16.328125 L 14.710938 -1.308594 L 7.546875 -26.6875 C 7.085938 -28.34375 6.816406 -29.078125 6.738281 -30.808594 L 1.925781 -30.808594 C 2.695312 -29.308594 3.042969 -28.460938 3.503906 -26.6875 L 11.054688 0 L 15.597656 0 C 15.328125 -0.847656 15.328125 -1.269531 15.519531 -2.078125 L 19.257812 -15.289062 L 23.570312 0 L 28.113281 0 C 27.84375 -0.847656 27.84375 -1.269531 28.074219 -2.078125 Z M 35.085938 -26.921875 "/></g></g></g><g fill="#ffffff" fill-opacity="1"><g transform="translate(692.306774, 740.674376)"><g><path d="M 24.648438 -23.222656 C 24.648438 -26.035156 24.6875 -27.574219 24.957031 -30.808594 L 20.566406 -30.808594 C 20.796875 -27.574219 20.875 -26.035156 20.875 -23.222656 L 20.875 -15.714844 L 6.777344 -15.714844 L 6.777344 -23.222656 C 6.777344 -26.035156 6.855469 -27.574219 7.085938 -30.808594 L 2.695312 -30.808594 C 2.925781 -27.574219 3.003906 -26.035156 3.003906 -23.222656 L 3.003906 -7.585938 C 3.003906 -4.777344 2.925781 -3.234375 2.695312 0 L 7.085938 0 C 6.855469 -3.234375 6.777344 -4.777344 6.777344 -7.585938 L 6.777344 -15.097656 L 20.875 -15.097656 L 20.875 -7.585938 C 20.875 -4.777344 20.796875 -3.234375 20.566406 0 L 24.957031 0 C 24.6875 -3.234375 24.648438 -4.777344 24.648438 -7.585938 Z M 24.648438 -23.222656 "/></g></g></g><g fill="#ffffff" fill-opacity="1"><g transform="translate(729.973846, 740.674376)"><g><path d="M 2.695312 -30.808594 C 3.003906 -27.574219 3.042969 -26.035156 3.042969 -23.222656 L 3.042969 -7.585938 C 3.042969 -4.777344 3.003906 -3.234375 2.695312 0 L 20.796875 0 L 21.914062 -2.078125 C 17.601562 -0.808594 14.980469 -0.617188 11.167969 -0.617188 L 6.855469 -0.617188 L 6.855469 -16.019531 L 9.320312 -16.019531 C 11.359375 -16.019531 13.441406 -16.019531 17.023438 -15.636719 L 17.023438 -17.023438 C 13.441406 -16.636719 11.359375 -16.636719 9.320312 -16.636719 L 6.855469 -16.636719 L 6.855469 -30.195312 L 10.359375 -30.195312 C 12.09375 -30.195312 15.867188 -29.964844 19.140625 -28.652344 L 20.875 -30.808594 Z M 2.695312 -30.808594 "/></g></g></g><g fill="#ffffff" fill-opacity="1"><g transform="translate(763.058368, 740.674376)"><g><path d="M 20.527344 -7.316406 C 18.679688 -11.9375 15.867188 -13.710938 12.515625 -14.328125 C 18.179688 -14.75 22.644531 -16.714844 22.644531 -22.53125 C 22.644531 -29.230469 16.675781 -30.808594 9.820312 -30.808594 L 2.695312 -30.808594 C 2.925781 -27.574219 3.003906 -26.035156 3.003906 -23.222656 L 3.003906 -7.585938 C 3.003906 -4.777344 2.925781 -3.234375 2.695312 0 L 7.085938 0 C 6.855469 -3.234375 6.777344 -4.777344 6.777344 -7.585938 L 6.777344 -14.25 L 8.164062 -14.25 C 12.132812 -14.25 14.519531 -13.09375 16.675781 -7.046875 C 18.5625 -1.65625 21.453125 0 27.804688 0 L 27.804688 -0.578125 C 24.222656 -0.578125 22.492188 -2.15625 20.527344 -7.316406 Z M 6.777344 -14.867188 L 6.777344 -30.195312 L 9.78125 -30.195312 C 14.289062 -30.195312 18.71875 -28.652344 18.71875 -22.53125 C 18.71875 -16.40625 14.289062 -14.867188 9.78125 -14.867188 Z M 6.777344 -14.867188 "/></g></g></g><g fill="#ffffff" fill-opacity="1"><g transform="translate(802.304307, 740.674376)"><g><path d="M 2.695312 -30.808594 C 3.003906 -27.574219 3.042969 -26.035156 3.042969 -23.222656 L 3.042969 -7.585938 C 3.042969 -4.777344 3.003906 -3.234375 2.695312 0 L 20.796875 0 L 21.914062 -2.078125 C 17.601562 -0.808594 14.980469 -0.617188 11.167969 -0.617188 L 6.855469 -0.617188 L 6.855469 -16.019531 L 9.320312 -16.019531 C 11.359375 -16.019531 13.441406 -16.019531 17.023438 -15.636719 L 17.023438 -17.023438 C 13.441406 -16.636719 11.359375 -16.636719 9.320312 -16.636719 L 6.855469 -16.636719 L 6.855469 -30.195312 L 10.359375 -30.195312 C 12.09375 -30.195312 15.867188 -29.964844 19.140625 -28.652344 L 20.875 -30.808594 Z M 2.695312 -30.808594 "/></g></g></g><g fill="#ffffff" fill-opacity="1"><g transform="translate(835.388829, 740.674376)"><g/></g></g><g fill="#ffffff" fill-opacity="1"><g transform="translate(856.420054, 740.674376)"><g><path d="M 2.773438 -30.808594 C 3.003906 -27.574219 3.082031 -26.035156 3.082031 -23.222656 L 3.082031 -7.585938 C 3.082031 -4.777344 3.003906 -3.234375 2.695312 0 L 19.71875 0 L 20.835938 -2.078125 C 16.523438 -0.808594 13.902344 -0.617188 10.089844 -0.617188 L 6.855469 -0.617188 L 6.855469 -23.222656 C 6.855469 -26.035156 6.933594 -27.574219 7.164062 -30.808594 Z M 2.773438 -30.808594 "/></g></g></g><g fill="#ffffff" fill-opacity="1"><g transform="translate(888.811416, 740.674376)"><g><path d="M 2.3125 -30.808594 C 2.542969 -27.574219 2.617188 -26.035156 2.617188 -23.222656 L 2.617188 -13.09375 C 2.617188 -2.117188 7.164062 0.769531 14.328125 0.769531 C 21.183594 0.769531 24.570312 -3.003906 24.570312 -13.09375 L 24.570312 -23.222656 C 24.570312 -26.035156 24.609375 -27.574219 24.878906 -30.808594 L 23.648438 -30.808594 C 23.917969 -27.574219 23.953125 -26.035156 23.953125 -23.222656 L 23.953125 -13.09375 C 23.953125 -3.542969 20.875 -0.191406 14.980469 -0.191406 C 8.894531 -0.191406 6.394531 -3.929688 6.394531 -13.09375 L 6.394531 -23.222656 C 6.394531 -26.035156 6.46875 -27.574219 6.703125 -30.808594 Z M 2.3125 -30.808594 "/></g></g></g><g fill="#ffffff" fill-opacity="1"><g transform="translate(926.016404, 740.674376)"><g><path d="M 20.21875 -3.503906 L 13.710938 -16.136719 L 19.71875 -27.152344 C 20.566406 -28.691406 20.835938 -29.308594 21.953125 -30.808594 L 20.796875 -30.808594 C 20.179688 -29.308594 19.835938 -28.691406 19.023438 -27.152344 L 13.363281 -16.792969 L 7.972656 -27.304688 C 7.277344 -28.691406 6.972656 -29.308594 6.507812 -30.808594 L 1.539062 -30.808594 C 2.695312 -29.308594 3.003906 -28.691406 3.734375 -27.304688 L 10.207031 -14.671875 L 4.121094 -3.503906 C 3.351562 -2.117188 3.082031 -1.503906 1.964844 0 L 3.121094 0 C 3.773438 -1.503906 4.082031 -2.078125 4.851562 -3.503906 L 10.550781 -14.019531 L 15.945312 -3.503906 C 16.675781 -2.117188 16.90625 -1.503906 17.40625 0 L 22.375 0 C 21.21875 -1.503906 20.914062 -2.117188 20.21875 -3.503906 Z M 20.21875 -3.503906 "/></g></g></g><g fill="#ffffff" fill-opacity="1"><g transform="translate(959.948137, 740.674376)"><g><path d="M 2.3125 -30.808594 C 2.542969 -27.574219 2.617188 -26.035156 2.617188 -23.222656 L 2.617188 -13.09375 C 2.617188 -2.117188 7.164062 0.769531 14.328125 0.769531 C 21.183594 0.769531 24.570312 -3.003906 24.570312 -13.09375 L 24.570312 -23.222656 C 24.570312 -26.035156 24.609375 -27.574219 24.878906 -30.808594 L 23.648438 -30.808594 C 23.917969 -27.574219 23.953125 -26.035156 23.953125 -23.222656 L 23.953125 -13.09375 C 23.953125 -3.542969 20.875 -0.191406 14.980469 -0.191406 C 8.894531 -0.191406 6.394531 -3.929688 6.394531 -13.09375 L 6.394531 -23.222656 C 6.394531 -26.035156 6.46875 -27.574219 6.703125 -30.808594 Z M 2.3125 -30.808594 "/></g></g></g><g fill="#ffffff" fill-opacity="1"><g transform="translate(997.153125, 740.674376)"><g><path d="M 20.527344 -7.316406 C 18.679688 -11.9375 15.867188 -13.710938 12.515625 -14.328125 C 18.179688 -14.75 22.644531 -16.714844 22.644531 -22.53125 C 22.644531 -29.230469 16.675781 -30.808594 9.820312 -30.808594 L 2.695312 -30.808594 C 2.925781 -27.574219 3.003906 -26.035156 3.003906 -23.222656 L 3.003906 -7.585938 C 3.003906 -4.777344 2.925781 -3.234375 2.695312 0 L 7.085938 0 C 6.855469 -3.234375 6.777344 -4.777344 6.777344 -7.585938 L 6.777344 -14.25 L 8.164062 -14.25 C 12.132812 -14.25 14.519531 -13.09375 16.675781 -7.046875 C 18.5625 -1.65625 21.453125 0 27.804688 0 L 27.804688 -0.578125 C 24.222656 -0.578125 22.492188 -2.15625 20.527344 -7.316406 Z M 6.777344 -14.867188 L 6.777344 -30.195312 L 9.78125 -30.195312 C 14.289062 -30.195312 18.71875 -28.652344 18.71875 -22.53125 C 18.71875 -16.40625 14.289062 -14.867188 9.78125 -14.867188 Z M 6.777344 -14.867188 "/></g></g></g><g fill="#ffffff" fill-opacity="1"><g transform="translate(1036.399064, 740.674376)"><g><path d="M 22.605469 -27.230469 C 23.339844 -28.613281 23.683594 -29.308594 24.6875 -30.808594 L 23.648438 -30.808594 C 23.03125 -29.308594 22.722656 -28.691406 21.953125 -27.191406 L 15.367188 -14.480469 L 8.625 -27.191406 C 7.855469 -28.613281 7.472656 -29.308594 6.972656 -30.808594 L 1.925781 -30.808594 C 3.042969 -29.421875 3.542969 -28.652344 4.3125 -27.191406 L 11.667969 -13.285156 L 11.667969 -7.585938 C 11.667969 -4.777344 11.632812 -3.234375 11.359375 0 L 15.75 0 C 15.519531 -3.234375 15.480469 -4.777344 15.480469 -7.585938 L 15.480469 -13.285156 Z M 22.605469 -27.230469 "/></g></g></g><g fill="#ffffff" fill-opacity="1"><g transform="translate(1073.026414, 740.674376)"><g/></g></g><g fill="#ffffff" fill-opacity="1"><g transform="translate(1094.057639, 740.674376)"><g><path d="M 1.539062 -9.203125 C 4.160156 -1.773438 8.625 0.769531 14.058594 0.769531 C 18.753906 0.769531 22.683594 -1.734375 22.683594 -6.894531 C 22.683594 -11.632812 19.257812 -14.019531 12.710938 -18.832031 C 7.933594 -22.335938 5.699219 -23.722656 5.699219 -26.726562 C 5.699219 -29.269531 7.664062 -30.964844 10.976562 -30.964844 C 15.90625 -30.964844 17.910156 -27.074219 18.640625 -23.300781 L 21.722656 -24.457031 C 19.0625 -29.230469 15.714844 -31.582031 11.167969 -31.582031 C 6.703125 -31.582031 3.464844 -29.386719 3.464844 -25.378906 C 3.464844 -21.566406 5.777344 -19.796875 11.285156 -15.714844 C 17.0625 -11.324219 20.488281 -9.050781 20.488281 -5.660156 C 20.488281 -1.773438 17.832031 0.152344 14.289062 0.152344 C 9.203125 0.152344 5.390625 -4.3125 4.621094 -10.707031 Z M 1.539062 -9.203125 "/></g></g></g><g fill="#ffffff" fill-opacity="1"><g transform="translate(1128.297439, 740.674376)"><g><path d="M 19.527344 0.769531 C 29.386719 0.769531 36.78125 -5.929688 36.78125 -15.40625 C 36.78125 -24.839844 29.386719 -31.582031 19.527344 -31.582031 C 9.667969 -31.582031 2.3125 -24.839844 2.3125 -15.40625 C 2.3125 -5.929688 9.667969 0.769531 19.527344 0.769531 Z M 19.527344 0.152344 C 11.359375 0.152344 6.46875 -7.277344 6.46875 -15.40625 C 6.46875 -23.492188 11.359375 -30.964844 19.527344 -30.964844 C 27.691406 -30.964844 32.621094 -23.492188 32.621094 -15.40625 C 32.621094 -7.277344 27.691406 0.152344 19.527344 0.152344 Z M 19.527344 0.152344 "/></g></g></g><g fill="#ffffff" fill-opacity="1"><g transform="translate(1177.401674, 740.674376)"><g><path d="M 22.335938 -4.121094 L 14.828125 -30.808594 L 10.28125 -30.808594 C 10.550781 -29.964844 10.550781 -29.539062 10.359375 -28.730469 L 3.3125 -3.890625 C 2.886719 -2.464844 2.773438 -1.695312 1.925781 0 L 3.042969 0 C 3.195312 -1.65625 3.503906 -2.464844 3.929688 -3.929688 L 6.007812 -11.207031 L 16.328125 -11.207031 L 18.332031 -4.121094 C 18.792969 -2.464844 19.0625 -1.734375 19.140625 0 L 23.953125 0 C 23.183594 -1.503906 22.839844 -2.347656 22.335938 -4.121094 Z M 6.160156 -11.824219 L 11.167969 -29.5 L 16.175781 -11.824219 Z M 6.160156 -11.824219 "/></g></g></g><g fill="#ffffff" fill-opacity="1"><g transform="translate(1213.297333, 740.674376)"><g><path d="M 20.527344 -7.316406 C 18.679688 -11.9375 15.867188 -13.710938 12.515625 -14.328125 C 18.179688 -14.75 22.644531 -16.714844 22.644531 -22.53125 C 22.644531 -29.230469 16.675781 -30.808594 9.820312 -30.808594 L 2.695312 -30.808594 C 2.925781 -27.574219 3.003906 -26.035156 3.003906 -23.222656 L 3.003906 -7.585938 C 3.003906 -4.777344 2.925781 -3.234375 2.695312 0 L 7.085938 0 C 6.855469 -3.234375 6.777344 -4.777344 6.777344 -7.585938 L 6.777344 -14.25 L 8.164062 -14.25 C 12.132812 -14.25 14.519531 -13.09375 16.675781 -7.046875 C 18.5625 -1.65625 21.453125 0 27.804688 0 L 27.804688 -0.578125 C 24.222656 -0.578125 22.492188 -2.15625 20.527344 -7.316406 Z M 6.777344 -14.867188 L 6.777344 -30.195312 L 9.78125 -30.195312 C 14.289062 -30.195312 18.71875 -28.652344 18.71875 -22.53125 C 18.71875 -16.40625 14.289062 -14.867188 9.78125 -14.867188 Z M 6.777344 -14.867188 "/></g></g></g><g fill="#ffffff" fill-opacity="1"><g transform="translate(1252.543307, 740.674376)"><g><path d="M 1.539062 -9.203125 C 4.160156 -1.773438 8.625 0.769531 14.058594 0.769531 C 18.753906 0.769531 22.683594 -1.734375 22.683594 -6.894531 C 22.683594 -11.632812 19.257812 -14.019531 12.710938 -18.832031 C 7.933594 -22.335938 5.699219 -23.722656 5.699219 -26.726562 C 5.699219 -29.269531 7.664062 -30.964844 10.976562 -30.964844 C 15.90625 -30.964844 17.910156 -27.074219 18.640625 -23.300781 L 21.722656 -24.457031 C 19.0625 -29.230469 15.714844 -31.582031 11.167969 -31.582031 C 6.703125 -31.582031 3.464844 -29.386719 3.464844 -25.378906 C 3.464844 -21.566406 5.777344 -19.796875 11.285156 -15.714844 C 17.0625 -11.324219 20.488281 -9.050781 20.488281 -5.660156 C 20.488281 -1.773438 17.832031 0.152344 14.289062 0.152344 C 9.203125 0.152344 5.390625 -4.3125 4.621094 -10.707031 Z M 1.539062 -9.203125 "/></g></g></g></svg>