<svg xmlns="http://www.w3.org/2000/svg" xmlns:xlink="http://www.w3.org/1999/xlink" width="500" zoomAndPan="magnify" viewBox="0 0 375 374.999991" height="500" preserveAspectRatio="xMidYMid meet" version="1.0"><defs><g/><clipPath id="edfb4526b4"><path d="M 185 96.191406 L 190 96.191406 L 190 114 L 185 114 Z M 185 96.191406 " clip-rule="nonzero"/></clipPath></defs><path fill="#124429" d="M 106.132812 190.574219 L 93.742188 190.574219 C 90.898438 190.574219 90.898438 194.984375 93.742188 194.984375 L 106.132812 194.984375 C 108.976562 194.984375 108.976562 190.574219 106.132812 190.574219 Z M 106.132812 190.574219 " fill-opacity="1" fill-rule="nonzero"/><path fill="#124429" d="M 118.472656 150.152344 L 107.398438 144 C 104.910156 142.617188 102.6875 146.425781 105.171875 147.808594 L 116.246094 153.960938 C 118.734375 155.34375 120.957031 151.53125 118.472656 150.152344 Z M 118.472656 150.152344 " fill-opacity="1" fill-rule="nonzero"/><path fill="#124429" d="M 148.550781 121.136719 L 142.519531 110.460938 C 141.125 107.984375 137.3125 110.207031 138.714844 112.6875 L 144.742188 123.363281 C 146.140625 125.835938 149.949219 123.617188 148.550781 121.136719 Z M 148.550781 121.136719 " fill-opacity="1" fill-rule="nonzero"/><g clip-path="url(#edfb4526b4)"><path fill="#124429" d="M 189.699219 111.449219 L 189.699219 99.03125 C 189.699219 96.1875 185.289062 96.1875 185.289062 99.03125 L 185.289062 111.449219 C 185.289062 114.292969 189.699219 114.292969 189.699219 111.449219 Z M 189.699219 111.449219 " fill-opacity="1" fill-rule="nonzero"/></g><path fill="#124429" d="M 230.320312 123.714844 L 236.269531 112.6875 C 237.617188 110.183594 233.8125 107.957031 232.460938 110.460938 L 226.511719 121.488281 C 225.160156 123.988281 228.96875 126.214844 230.320312 123.714844 Z M 230.320312 123.714844 " fill-opacity="1" fill-rule="nonzero"/><path fill="#124429" d="M 258.894531 154.308594 L 269.804688 147.804688 C 272.246094 146.351562 270.03125 142.539062 267.582031 144 L 256.667969 150.503906 C 254.226562 151.957031 256.445312 155.769531 258.894531 154.308594 Z M 258.894531 154.308594 " fill-opacity="1" fill-rule="nonzero"/><path fill="#124429" d="M 268.628906 194.984375 L 281.238281 194.984375 C 284.082031 194.984375 284.082031 190.574219 281.238281 190.574219 L 268.628906 190.574219 C 265.785156 190.574219 265.785156 194.984375 268.628906 194.984375 Z M 268.628906 194.984375 " fill-opacity="1" fill-rule="nonzero"/><path fill="#124429" d="M 188 187.152344 L 187.691406 187.152344 C 184.6875 187.152344 182.179688 189.660156 182.179688 192.664062 C 182.179688 195.667969 184.6875 198.175781 187.691406 198.175781 L 188 198.175781 C 191.003906 198.175781 193.511719 195.667969 193.511719 192.664062 C 193.511719 189.660156 191.003906 187.152344 188 187.152344 Z M 188 187.152344 " fill-opacity="1" fill-rule="nonzero"/><path fill="#124429" d="M 188.753906 192.992188 L 188.753906 143.460938 C 188.753906 142.039062 186.550781 142.039062 186.550781 143.460938 L 186.550781 192.992188 C 186.550781 194.414062 188.753906 194.414062 188.753906 192.992188 Z M 188.753906 192.992188 " fill-opacity="1" fill-rule="nonzero"/><path fill="#124429" d="M 188.25 192.105469 L 155.59375 135.597656 L 152.980469 131.078125 C 152.269531 129.847656 150.363281 130.957031 151.078125 132.191406 L 183.734375 188.699219 L 186.347656 193.21875 C 187.058594 194.449219 188.964844 193.339844 188.25 192.105469 Z M 188.25 192.105469 " fill-opacity="1" fill-rule="nonzero"/><g fill="#124429" fill-opacity="1"><g transform="translate(34.556543, 234.443218)"><g><path d="M 22.359375 -4.125 L 14.84375 -30.839844 L 10.292969 -30.839844 C 10.5625 -29.992188 10.5625 -29.570312 10.371094 -28.757812 L 3.316406 -3.894531 C 2.890625 -2.46875 2.777344 -1.695312 1.925781 0 L 3.046875 0 C 3.199219 -1.65625 3.507812 -2.46875 3.933594 -3.933594 L 6.015625 -11.21875 L 16.347656 -11.21875 L 18.351562 -4.125 C 18.8125 -2.46875 19.082031 -1.734375 19.160156 0 L 23.980469 0 C 23.207031 -1.503906 22.859375 -2.351562 22.359375 -4.125 Z M 6.167969 -11.835938 L 11.179688 -29.53125 L 16.191406 -11.835938 Z M 6.167969 -11.835938 "/></g></g></g><g fill="#124429" fill-opacity="1"><g transform="translate(60.460418, 234.443218)"><g><path d="M 20.546875 -7.324219 C 18.699219 -11.949219 15.882812 -13.722656 12.53125 -14.339844 C 18.195312 -14.765625 22.667969 -16.730469 22.667969 -22.554688 C 22.667969 -29.261719 16.691406 -30.839844 9.832031 -30.839844 L 2.699219 -30.839844 C 2.929688 -27.601562 3.007812 -26.0625 3.007812 -23.246094 L 3.007812 -7.59375 C 3.007812 -4.78125 2.929688 -3.238281 2.699219 0 L 7.09375 0 C 6.863281 -3.238281 6.785156 -4.78125 6.785156 -7.59375 L 6.785156 -14.265625 L 8.171875 -14.265625 C 12.144531 -14.265625 14.535156 -13.109375 16.691406 -7.054688 C 18.582031 -1.65625 21.472656 0 27.835938 0 L 27.835938 -0.578125 C 24.25 -0.578125 22.515625 -2.160156 20.546875 -7.324219 Z M 6.785156 -14.882812 L 6.785156 -30.222656 L 9.792969 -30.222656 C 14.300781 -30.222656 18.734375 -28.683594 18.734375 -22.554688 C 18.734375 -16.421875 14.300781 -14.882812 9.792969 -14.882812 Z M 6.785156 -14.882812 "/></g></g></g><g fill="#124429" fill-opacity="1"><g transform="translate(89.717916, 234.443218)"><g><path d="M 2.699219 -30.839844 C 2.929688 -27.601562 3.007812 -26.0625 3.007812 -23.246094 L 3.007812 -7.59375 C 3.007812 -4.78125 2.929688 -3.238281 2.699219 0 L 7.09375 0 C 6.863281 -3.238281 6.785156 -4.78125 6.785156 -7.59375 L 6.785156 -23.246094 C 6.785156 -26.0625 6.863281 -27.601562 7.09375 -30.839844 Z M 2.699219 -30.839844 "/></g></g></g><g fill="#124429" fill-opacity="1"><g transform="translate(99.508959, 234.443218)"><g><path d="M 1.542969 -9.214844 C 4.164062 -1.773438 8.636719 0.769531 14.070312 0.769531 C 18.773438 0.769531 22.707031 -1.734375 22.707031 -6.902344 C 22.707031 -11.644531 19.277344 -14.03125 12.722656 -18.851562 C 7.941406 -22.359375 5.707031 -23.746094 5.707031 -26.753906 C 5.707031 -29.300781 7.671875 -30.996094 10.988281 -30.996094 C 15.921875 -30.996094 17.925781 -27.101562 18.660156 -23.324219 L 21.742188 -24.480469 C 19.082031 -29.261719 15.730469 -31.613281 11.179688 -31.613281 C 6.707031 -31.613281 3.46875 -29.414062 3.46875 -25.40625 C 3.46875 -21.589844 5.78125 -19.816406 11.296875 -15.730469 C 17.078125 -11.335938 20.507812 -9.058594 20.507812 -5.667969 C 20.507812 -1.773438 17.847656 0.152344 14.300781 0.152344 C 9.214844 0.152344 5.398438 -4.316406 4.625 -10.71875 Z M 1.542969 -9.214844 "/></g></g></g><g fill="#124429" fill-opacity="1"><g transform="translate(123.755299, 234.443218)"><g><path d="M 24.828125 -30.839844 L 0.769531 -30.839844 L 2.46875 -28.683594 C 5.78125 -29.992188 8.75 -30.222656 10.449219 -30.222656 L 10.910156 -30.222656 L 10.910156 -7.59375 C 10.910156 -4.78125 10.832031 -3.238281 10.601562 0 L 14.996094 0 C 14.765625 -3.238281 14.6875 -4.78125 14.6875 -7.59375 L 14.6875 -30.222656 L 15.152344 -30.222656 C 16.847656 -30.222656 19.816406 -29.992188 23.132812 -28.683594 Z M 24.828125 -30.839844 "/></g></g></g><g fill="#124429" fill-opacity="1"><g transform="translate(149.350801, 234.443218)"><g><path d="M 19.546875 0.769531 C 29.414062 0.769531 36.816406 -5.9375 36.816406 -15.421875 C 36.816406 -24.867188 29.414062 -31.613281 19.546875 -31.613281 C 9.675781 -31.613281 2.3125 -24.867188 2.3125 -15.421875 C 2.3125 -5.9375 9.675781 0.769531 19.546875 0.769531 Z M 19.546875 0.152344 C 11.371094 0.152344 6.476562 -7.285156 6.476562 -15.421875 C 6.476562 -23.515625 11.371094 -30.996094 19.546875 -30.996094 C 27.71875 -30.996094 32.652344 -23.515625 32.652344 -15.421875 C 32.652344 -7.285156 27.71875 0.152344 19.546875 0.152344 Z M 19.546875 0.152344 "/></g></g></g><g fill="#124429" fill-opacity="1"><g transform="translate(188.476442, 234.443218)"><g><path d="M 1.542969 -9.214844 C 4.164062 -1.773438 8.636719 0.769531 14.070312 0.769531 C 18.773438 0.769531 22.707031 -1.734375 22.707031 -6.902344 C 22.707031 -11.644531 19.277344 -14.03125 12.722656 -18.851562 C 7.941406 -22.359375 5.707031 -23.746094 5.707031 -26.753906 C 5.707031 -29.300781 7.671875 -30.996094 10.988281 -30.996094 C 15.921875 -30.996094 17.925781 -27.101562 18.660156 -23.324219 L 21.742188 -24.480469 C 19.082031 -29.261719 15.730469 -31.613281 11.179688 -31.613281 C 6.707031 -31.613281 3.46875 -29.414062 3.46875 -25.40625 C 3.46875 -21.589844 5.78125 -19.816406 11.296875 -15.730469 C 17.078125 -11.335938 20.507812 -9.058594 20.507812 -5.667969 C 20.507812 -1.773438 17.847656 0.152344 14.300781 0.152344 C 9.214844 0.152344 5.398438 -4.316406 4.625 -10.71875 Z M 1.542969 -9.214844 "/></g></g></g><g fill="#124429" fill-opacity="1"><g transform="translate(212.722782, 234.443218)"><g><path d="M 2.699219 0 L 7.09375 0 C 6.863281 -3.238281 6.785156 -4.78125 6.785156 -7.59375 L 6.785156 -14.265625 L 9.832031 -14.265625 C 16.691406 -14.265625 22.667969 -15.84375 22.667969 -22.554688 C 22.667969 -29.261719 16.691406 -30.839844 9.832031 -30.839844 L 2.699219 -30.839844 C 2.929688 -27.601562 3.007812 -26.0625 3.007812 -23.246094 L 3.007812 -7.59375 C 3.007812 -4.78125 2.929688 -3.238281 2.699219 0 Z M 6.785156 -14.882812 L 6.785156 -30.222656 L 9.792969 -30.222656 C 14.300781 -30.222656 18.734375 -28.683594 18.734375 -22.554688 C 18.734375 -16.421875 14.300781 -14.882812 9.792969 -14.882812 Z M 6.785156 -14.882812 "/></g></g></g><g fill="#124429" fill-opacity="1"><g transform="translate(237.316038, 234.443218)"><g><path d="M 24.671875 -23.246094 C 24.671875 -26.0625 24.710938 -27.601562 24.980469 -30.839844 L 20.585938 -30.839844 C 20.816406 -27.601562 20.894531 -26.0625 20.894531 -23.246094 L 20.894531 -15.730469 L 6.785156 -15.730469 L 6.785156 -23.246094 C 6.785156 -26.0625 6.863281 -27.601562 7.09375 -30.839844 L 2.699219 -30.839844 C 2.929688 -27.601562 3.007812 -26.0625 3.007812 -23.246094 L 3.007812 -7.59375 C 3.007812 -4.78125 2.929688 -3.238281 2.699219 0 L 7.09375 0 C 6.863281 -3.238281 6.785156 -4.78125 6.785156 -7.59375 L 6.785156 -15.113281 L 20.894531 -15.113281 L 20.894531 -7.59375 C 20.894531 -4.78125 20.816406 -3.238281 20.585938 0 L 24.980469 0 C 24.710938 -3.238281 24.671875 -4.78125 24.671875 -7.59375 Z M 24.671875 -23.246094 "/></g></g></g><g fill="#124429" fill-opacity="1"><g transform="translate(264.99309, 234.443218)"><g><path d="M 2.699219 -30.839844 C 3.007812 -27.601562 3.046875 -26.0625 3.046875 -23.246094 L 3.046875 -7.59375 C 3.046875 -4.78125 3.007812 -3.238281 2.699219 0 L 20.816406 0 L 21.9375 -2.082031 C 17.617188 -0.808594 14.996094 -0.617188 11.179688 -0.617188 L 6.863281 -0.617188 L 6.863281 -16.039062 L 9.328125 -16.039062 C 11.371094 -16.039062 13.453125 -16.039062 17.039062 -15.652344 L 17.039062 -17.039062 C 13.453125 -16.65625 11.371094 -16.65625 9.328125 -16.65625 L 6.863281 -16.65625 L 6.863281 -30.222656 L 10.371094 -30.222656 C 12.105469 -30.222656 15.882812 -29.992188 19.160156 -28.683594 L 20.894531 -30.839844 Z M 2.699219 -30.839844 "/></g></g></g><g fill="#124429" fill-opacity="1"><g transform="translate(288.083, 234.443218)"><g><path d="M 20.546875 -7.324219 C 18.699219 -11.949219 15.882812 -13.722656 12.53125 -14.339844 C 18.195312 -14.765625 22.667969 -16.730469 22.667969 -22.554688 C 22.667969 -29.261719 16.691406 -30.839844 9.832031 -30.839844 L 2.699219 -30.839844 C 2.929688 -27.601562 3.007812 -26.0625 3.007812 -23.246094 L 3.007812 -7.59375 C 3.007812 -4.78125 2.929688 -3.238281 2.699219 0 L 7.09375 0 C 6.863281 -3.238281 6.785156 -4.78125 6.785156 -7.59375 L 6.785156 -14.265625 L 8.171875 -14.265625 C 12.144531 -14.265625 14.535156 -13.109375 16.691406 -7.054688 C 18.582031 -1.65625 21.472656 0 27.835938 0 L 27.835938 -0.578125 C 24.25 -0.578125 22.515625 -2.160156 20.546875 -7.324219 Z M 6.785156 -14.882812 L 6.785156 -30.222656 L 9.792969 -30.222656 C 14.300781 -30.222656 18.734375 -28.683594 18.734375 -22.554688 C 18.734375 -16.421875 14.300781 -14.882812 9.792969 -14.882812 Z M 6.785156 -14.882812 "/></g></g></g><g fill="#124429" fill-opacity="1"><g transform="translate(317.340498, 234.443218)"><g><path d="M 2.699219 -30.839844 C 3.007812 -27.601562 3.046875 -26.0625 3.046875 -23.246094 L 3.046875 -7.59375 C 3.046875 -4.78125 3.007812 -3.238281 2.699219 0 L 20.816406 0 L 21.9375 -2.082031 C 17.617188 -0.808594 14.996094 -0.617188 11.179688 -0.617188 L 6.863281 -0.617188 L 6.863281 -16.039062 L 9.328125 -16.039062 C 11.371094 -16.039062 13.453125 -16.039062 17.039062 -15.652344 L 17.039062 -17.039062 C 13.453125 -16.65625 11.371094 -16.65625 9.328125 -16.65625 L 6.863281 -16.65625 L 6.863281 -30.222656 L 10.371094 -30.222656 C 12.105469 -30.222656 15.882812 -29.992188 19.160156 -28.683594 L 20.894531 -30.839844 Z M 2.699219 -30.839844 "/></g></g></g><g fill="#124429" fill-opacity="1"><g transform="translate(77.500894, 257.178617)"><g><path d="M 12.183594 -9.347656 C 12.328125 -9.84375 12.371094 -10.109375 12.664062 -10.699219 L 12.277344 -10.699219 C 12.222656 -10.121094 12.117188 -9.84375 11.96875 -9.335938 L 9.453125 -0.453125 L 7.394531 -7.769531 L 7.835938 -9.347656 C 7.984375 -9.84375 8.023438 -10.109375 8.316406 -10.699219 L 7.917969 -10.699219 C 7.875 -10.121094 7.757812 -9.84375 7.621094 -9.335938 L 7.289062 -8.144531 L 6.96875 -9.265625 C 6.804688 -9.84375 6.714844 -10.097656 6.6875 -10.699219 L 5.015625 -10.699219 C 5.28125 -10.175781 5.402344 -9.882812 5.578125 -9.265625 L 6.59375 -5.671875 L 5.109375 -0.453125 L 2.621094 -9.265625 C 2.460938 -9.84375 2.367188 -10.097656 2.339844 -10.699219 L 0.667969 -10.699219 C 0.9375 -10.175781 1.054688 -9.882812 1.21875 -9.265625 L 3.839844 0 L 5.414062 0 C 5.320312 -0.292969 5.320312 -0.441406 5.390625 -0.722656 L 6.6875 -5.308594 L 8.183594 0 L 9.761719 0 C 9.667969 -0.292969 9.667969 -0.441406 9.75 -0.722656 Z M 12.183594 -9.347656 "/></g></g></g><g fill="#124429" fill-opacity="1"><g transform="translate(94.550976, 257.178617)"><g><path d="M 8.558594 -8.0625 C 8.558594 -9.039062 8.570312 -9.574219 8.664062 -10.699219 L 7.140625 -10.699219 C 7.222656 -9.574219 7.246094 -9.039062 7.246094 -8.0625 L 7.246094 -5.457031 L 2.355469 -5.457031 L 2.355469 -8.0625 C 2.355469 -9.039062 2.378906 -9.574219 2.460938 -10.699219 L 0.9375 -10.699219 C 1.015625 -9.574219 1.042969 -9.039062 1.042969 -8.0625 L 1.042969 -2.632812 C 1.042969 -1.65625 1.015625 -1.125 0.9375 0 L 2.460938 0 C 2.378906 -1.125 2.355469 -1.65625 2.355469 -2.632812 L 2.355469 -5.242188 L 7.246094 -5.242188 L 7.246094 -2.632812 C 7.246094 -1.65625 7.222656 -1.125 7.140625 0 L 8.664062 0 C 8.570312 -1.125 8.558594 -1.65625 8.558594 -2.632812 Z M 8.558594 -8.0625 "/></g></g></g><g fill="#124429" fill-opacity="1"><g transform="translate(107.629821, 257.178617)"><g><path d="M 0.9375 -10.699219 C 1.042969 -9.574219 1.054688 -9.039062 1.054688 -8.0625 L 1.054688 -2.632812 C 1.054688 -1.65625 1.042969 -1.125 0.9375 0 L 7.222656 0 L 7.609375 -0.722656 C 6.109375 -0.28125 5.203125 -0.214844 3.878906 -0.214844 L 2.378906 -0.214844 L 2.378906 -5.5625 L 3.234375 -5.5625 C 3.945312 -5.5625 4.667969 -5.5625 5.910156 -5.429688 L 5.910156 -5.910156 C 4.667969 -5.777344 3.945312 -5.777344 3.234375 -5.777344 L 2.378906 -5.777344 L 2.378906 -10.484375 L 3.597656 -10.484375 C 4.199219 -10.484375 5.507812 -10.402344 6.644531 -9.949219 L 7.246094 -10.699219 Z M 0.9375 -10.699219 "/></g></g></g><g fill="#124429" fill-opacity="1"><g transform="translate(119.117502, 257.178617)"><g><path d="M 7.128906 -2.539062 C 6.484375 -4.144531 5.507812 -4.761719 4.347656 -4.972656 C 6.3125 -5.121094 7.863281 -5.804688 7.863281 -7.824219 C 7.863281 -10.148438 5.789062 -10.699219 3.410156 -10.699219 L 0.9375 -10.699219 C 1.015625 -9.574219 1.042969 -9.039062 1.042969 -8.0625 L 1.042969 -2.632812 C 1.042969 -1.65625 1.015625 -1.125 0.9375 0 L 2.460938 0 C 2.378906 -1.125 2.355469 -1.65625 2.355469 -2.632812 L 2.355469 -4.949219 L 2.835938 -4.949219 C 4.210938 -4.949219 5.042969 -4.546875 5.789062 -2.445312 C 6.445312 -0.574219 7.449219 0 9.65625 0 L 9.65625 -0.199219 C 8.410156 -0.199219 7.808594 -0.75 7.128906 -2.539062 Z M 2.355469 -5.160156 L 2.355469 -10.484375 L 3.398438 -10.484375 C 4.960938 -10.484375 6.5 -9.949219 6.5 -7.824219 C 6.5 -5.695312 4.960938 -5.160156 3.398438 -5.160156 Z M 2.355469 -5.160156 "/></g></g></g><g fill="#124429" fill-opacity="1"><g transform="translate(132.744565, 257.178617)"><g><path d="M 0.9375 -10.699219 C 1.042969 -9.574219 1.054688 -9.039062 1.054688 -8.0625 L 1.054688 -2.632812 C 1.054688 -1.65625 1.042969 -1.125 0.9375 0 L 7.222656 0 L 7.609375 -0.722656 C 6.109375 -0.28125 5.203125 -0.214844 3.878906 -0.214844 L 2.378906 -0.214844 L 2.378906 -5.5625 L 3.234375 -5.5625 C 3.945312 -5.5625 4.667969 -5.5625 5.910156 -5.429688 L 5.910156 -5.910156 C 4.667969 -5.777344 3.945312 -5.777344 3.234375 -5.777344 L 2.378906 -5.777344 L 2.378906 -10.484375 L 3.597656 -10.484375 C 4.199219 -10.484375 5.507812 -10.402344 6.644531 -9.949219 L 7.246094 -10.699219 Z M 0.9375 -10.699219 "/></g></g></g><g fill="#124429" fill-opacity="1"><g transform="translate(144.232247, 257.178617)"><g/></g></g><g fill="#124429" fill-opacity="1"><g transform="translate(151.534755, 257.178617)"><g><path d="M 0.960938 -10.699219 C 1.042969 -9.574219 1.070312 -9.039062 1.070312 -8.0625 L 1.070312 -2.632812 C 1.070312 -1.65625 1.042969 -1.125 0.9375 0 L 6.847656 0 L 7.234375 -0.722656 C 5.738281 -0.28125 4.828125 -0.214844 3.503906 -0.214844 L 2.378906 -0.214844 L 2.378906 -8.0625 C 2.378906 -9.039062 2.40625 -9.574219 2.488281 -10.699219 Z M 0.960938 -10.699219 "/></g></g></g><g fill="#124429" fill-opacity="1"><g transform="translate(162.781756, 257.178617)"><g><path d="M 0.800781 -10.699219 C 0.882812 -9.574219 0.910156 -9.039062 0.910156 -8.0625 L 0.910156 -4.546875 C 0.910156 -0.734375 2.488281 0.265625 4.972656 0.265625 C 7.355469 0.265625 8.53125 -1.042969 8.53125 -4.546875 L 8.53125 -8.0625 C 8.53125 -9.039062 8.546875 -9.574219 8.636719 -10.699219 L 8.210938 -10.699219 C 8.304688 -9.574219 8.316406 -9.039062 8.316406 -8.0625 L 8.316406 -4.546875 C 8.316406 -1.230469 7.246094 -0.0664062 5.203125 -0.0664062 C 3.089844 -0.0664062 2.21875 -1.363281 2.21875 -4.546875 L 2.21875 -8.0625 C 2.21875 -9.039062 2.246094 -9.574219 2.328125 -10.699219 Z M 0.800781 -10.699219 "/></g></g></g><g fill="#124429" fill-opacity="1"><g transform="translate(175.700155, 257.178617)"><g><path d="M 7.019531 -1.21875 L 4.761719 -5.601562 L 6.847656 -9.425781 C 7.140625 -9.960938 7.234375 -10.175781 7.621094 -10.699219 L 7.222656 -10.699219 C 7.007812 -10.175781 6.886719 -9.960938 6.605469 -9.425781 L 4.640625 -5.832031 L 2.769531 -9.480469 C 2.527344 -9.960938 2.421875 -10.175781 2.261719 -10.699219 L 0.535156 -10.699219 C 0.9375 -10.175781 1.042969 -9.960938 1.296875 -9.480469 L 3.542969 -5.09375 L 1.429688 -1.21875 C 1.164062 -0.734375 1.070312 -0.523438 0.683594 0 L 1.082031 0 C 1.308594 -0.523438 1.417969 -0.722656 1.683594 -1.21875 L 3.664062 -4.867188 L 5.535156 -1.21875 C 5.789062 -0.734375 5.871094 -0.523438 6.042969 0 L 7.769531 0 C 7.367188 -0.523438 7.261719 -0.734375 7.019531 -1.21875 Z M 7.019531 -1.21875 "/></g></g></g><g fill="#124429" fill-opacity="1"><g transform="translate(187.482007, 257.178617)"><g><path d="M 0.800781 -10.699219 C 0.882812 -9.574219 0.910156 -9.039062 0.910156 -8.0625 L 0.910156 -4.546875 C 0.910156 -0.734375 2.488281 0.265625 4.972656 0.265625 C 7.355469 0.265625 8.53125 -1.042969 8.53125 -4.546875 L 8.53125 -8.0625 C 8.53125 -9.039062 8.546875 -9.574219 8.636719 -10.699219 L 8.210938 -10.699219 C 8.304688 -9.574219 8.316406 -9.039062 8.316406 -8.0625 L 8.316406 -4.546875 C 8.316406 -1.230469 7.246094 -0.0664062 5.203125 -0.0664062 C 3.089844 -0.0664062 2.21875 -1.363281 2.21875 -4.546875 L 2.21875 -8.0625 C 2.21875 -9.039062 2.246094 -9.574219 2.328125 -10.699219 Z M 0.800781 -10.699219 "/></g></g></g><g fill="#124429" fill-opacity="1"><g transform="translate(200.400406, 257.178617)"><g><path d="M 7.128906 -2.539062 C 6.484375 -4.144531 5.507812 -4.761719 4.347656 -4.972656 C 6.3125 -5.121094 7.863281 -5.804688 7.863281 -7.824219 C 7.863281 -10.148438 5.789062 -10.699219 3.410156 -10.699219 L 0.9375 -10.699219 C 1.015625 -9.574219 1.042969 -9.039062 1.042969 -8.0625 L 1.042969 -2.632812 C 1.042969 -1.65625 1.015625 -1.125 0.9375 0 L 2.460938 0 C 2.378906 -1.125 2.355469 -1.65625 2.355469 -2.632812 L 2.355469 -4.949219 L 2.835938 -4.949219 C 4.210938 -4.949219 5.042969 -4.546875 5.789062 -2.445312 C 6.445312 -0.574219 7.449219 0 9.65625 0 L 9.65625 -0.199219 C 8.410156 -0.199219 7.808594 -0.75 7.128906 -2.539062 Z M 2.355469 -5.160156 L 2.355469 -10.484375 L 3.398438 -10.484375 C 4.960938 -10.484375 6.5 -9.949219 6.5 -7.824219 C 6.5 -5.695312 4.960938 -5.160156 3.398438 -5.160156 Z M 2.355469 -5.160156 "/></g></g></g><g fill="#124429" fill-opacity="1"><g transform="translate(214.027469, 257.178617)"><g><path d="M 7.851562 -9.453125 C 8.105469 -9.9375 8.222656 -10.175781 8.570312 -10.699219 L 8.210938 -10.699219 C 7.996094 -10.175781 7.890625 -9.960938 7.621094 -9.441406 L 5.335938 -5.027344 L 2.996094 -9.441406 C 2.726562 -9.9375 2.59375 -10.175781 2.421875 -10.699219 L 0.667969 -10.699219 C 1.054688 -10.214844 1.230469 -9.949219 1.496094 -9.441406 L 4.050781 -4.613281 L 4.050781 -2.632812 C 4.050781 -1.65625 4.039062 -1.125 3.945312 0 L 5.46875 0 C 5.390625 -1.125 5.375 -1.65625 5.375 -2.632812 L 5.375 -4.613281 Z M 7.851562 -9.453125 "/></g></g></g><g fill="#124429" fill-opacity="1"><g transform="translate(226.745299, 257.178617)"><g/></g></g><g fill="#124429" fill-opacity="1"><g transform="translate(234.047808, 257.178617)"><g><path d="M 0.535156 -3.195312 C 1.445312 -0.613281 2.996094 0.265625 4.882812 0.265625 C 6.511719 0.265625 7.875 -0.601562 7.875 -2.394531 C 7.875 -4.039062 6.6875 -4.867188 4.414062 -6.539062 C 2.753906 -7.757812 1.980469 -8.238281 1.980469 -9.28125 C 1.980469 -10.164062 2.660156 -10.75 3.8125 -10.75 C 5.523438 -10.75 6.21875 -9.402344 6.472656 -8.089844 L 7.542969 -8.492188 C 6.621094 -10.148438 5.457031 -10.964844 3.878906 -10.964844 C 2.328125 -10.964844 1.203125 -10.203125 1.203125 -8.8125 C 1.203125 -7.488281 2.007812 -6.875 3.917969 -5.457031 C 5.925781 -3.929688 7.113281 -3.140625 7.113281 -1.964844 C 7.113281 -0.613281 6.191406 0.0546875 4.960938 0.0546875 C 3.195312 0.0546875 1.871094 -1.496094 1.605469 -3.71875 Z M 0.535156 -3.195312 "/></g></g></g><g fill="#124429" fill-opacity="1"><g transform="translate(245.936628, 257.178617)"><g><path d="M 6.78125 0.265625 C 10.203125 0.265625 12.769531 -2.058594 12.769531 -5.347656 C 12.769531 -8.625 10.203125 -10.964844 6.78125 -10.964844 C 3.355469 -10.964844 0.800781 -8.625 0.800781 -5.347656 C 0.800781 -2.058594 3.355469 0.265625 6.78125 0.265625 Z M 6.78125 0.0546875 C 3.945312 0.0546875 2.246094 -2.527344 2.246094 -5.347656 C 2.246094 -8.15625 3.945312 -10.75 6.78125 -10.75 C 9.613281 -10.75 11.328125 -8.15625 11.328125 -5.347656 C 11.328125 -2.527344 9.613281 0.0546875 6.78125 0.0546875 Z M 6.78125 0.0546875 "/></g></g></g><g fill="#124429" fill-opacity="1"><g transform="translate(262.986709, 257.178617)"><g><path d="M 7.757812 -1.429688 L 5.148438 -10.699219 L 3.570312 -10.699219 C 3.664062 -10.402344 3.664062 -10.257812 3.597656 -9.976562 L 1.148438 -1.351562 C 1.003906 -0.855469 0.960938 -0.589844 0.667969 0 L 1.054688 0 C 1.109375 -0.574219 1.21875 -0.855469 1.363281 -1.363281 L 2.085938 -3.890625 L 5.671875 -3.890625 L 6.367188 -1.429688 C 6.527344 -0.855469 6.621094 -0.601562 6.644531 0 L 8.316406 0 C 8.050781 -0.523438 7.929688 -0.816406 7.757812 -1.429688 Z M 2.140625 -4.105469 L 3.878906 -10.242188 L 5.617188 -4.105469 Z M 2.140625 -4.105469 "/></g></g></g><g fill="#124429" fill-opacity="1"><g transform="translate(275.45048, 257.178617)"><g><path d="M 7.128906 -2.539062 C 6.484375 -4.144531 5.507812 -4.761719 4.347656 -4.972656 C 6.3125 -5.121094 7.863281 -5.804688 7.863281 -7.824219 C 7.863281 -10.148438 5.789062 -10.699219 3.410156 -10.699219 L 0.9375 -10.699219 C 1.015625 -9.574219 1.042969 -9.039062 1.042969 -8.0625 L 1.042969 -2.632812 C 1.042969 -1.65625 1.015625 -1.125 0.9375 0 L 2.460938 0 C 2.378906 -1.125 2.355469 -1.65625 2.355469 -2.632812 L 2.355469 -4.949219 L 2.835938 -4.949219 C 4.210938 -4.949219 5.042969 -4.546875 5.789062 -2.445312 C 6.445312 -0.574219 7.449219 0 9.65625 0 L 9.65625 -0.199219 C 8.410156 -0.199219 7.808594 -0.75 7.128906 -2.539062 Z M 2.355469 -5.160156 L 2.355469 -10.484375 L 3.398438 -10.484375 C 4.960938 -10.484375 6.5 -9.949219 6.5 -7.824219 C 6.5 -5.695312 4.960938 -5.160156 3.398438 -5.160156 Z M 2.355469 -5.160156 "/></g></g></g><g fill="#124429" fill-opacity="1"><g transform="translate(289.077555, 257.178617)"><g><path d="M 0.535156 -3.195312 C 1.445312 -0.613281 2.996094 0.265625 4.882812 0.265625 C 6.511719 0.265625 7.875 -0.601562 7.875 -2.394531 C 7.875 -4.039062 6.6875 -4.867188 4.414062 -6.539062 C 2.753906 -7.757812 1.980469 -8.238281 1.980469 -9.28125 C 1.980469 -10.164062 2.660156 -10.75 3.8125 -10.75 C 5.523438 -10.75 6.21875 -9.402344 6.472656 -8.089844 L 7.542969 -8.492188 C 6.621094 -10.148438 5.457031 -10.964844 3.878906 -10.964844 C 2.328125 -10.964844 1.203125 -10.203125 1.203125 -8.8125 C 1.203125 -7.488281 2.007812 -6.875 3.917969 -5.457031 C 5.925781 -3.929688 7.113281 -3.140625 7.113281 -1.964844 C 7.113281 -0.613281 6.191406 0.0546875 4.960938 0.0546875 C 3.195312 0.0546875 1.871094 -1.496094 1.605469 -3.71875 Z M 0.535156 -3.195312 "/></g></g></g></svg>